<svg width="21" height="22" viewBox="0 0 21 22" fill="none" xmlns="http://www.w3.org/2000/svg">
<path d="M15.75 7.33301C17.1997 7.33301 18.375 6.10179 18.375 4.58301C18.375 3.06422 17.1997 1.83301 15.75 1.83301C14.3003 1.83301 13.125 3.06422 13.125 4.58301C13.125 6.10179 14.3003 7.33301 15.75 7.33301Z" stroke="#757575" stroke-width="2" stroke-linecap="round" stroke-linejoin="round"/>
<path d="M5.25 13.75C6.69975 13.75 7.875 12.5188 7.875 11C7.875 9.48122 6.69975 8.25 5.25 8.25C3.80025 8.25 2.625 9.48122 2.625 11C2.625 12.5188 3.80025 13.75 5.25 13.75Z" stroke="#757575" stroke-width="2" stroke-linecap="round" stroke-linejoin="round"/>
<path d="M15.75 20.167C17.1997 20.167 18.375 18.9358 18.375 17.417C18.375 15.8982 17.1997 14.667 15.75 14.667C14.3003 14.667 13.125 15.8982 13.125 17.417C13.125 18.9358 14.3003 20.167 15.75 20.167Z" stroke="#757575" stroke-width="2" stroke-linecap="round" stroke-linejoin="round"/>
<path d="M7.51636 12.3838L13.4926 16.0321" stroke="#757575" stroke-width="2" stroke-linecap="round" stroke-linejoin="round"/>
<path d="M13.4839 5.96777L7.51636 9.61611" stroke="#757575" stroke-width="2" stroke-linecap="round" stroke-linejoin="round"/>
</svg>
