<svg width="2880" height="269" viewBox="0 0 2880 269" fill="none" xmlns="http://www.w3.org/2000/svg">
<path fill-rule="evenodd" clip-rule="evenodd" d="M0 0L119.25 10.1069C240.75 20.2139 479.25 40.4277 720 74.6358C960.75 109.621 1199.25 159.379 1440 169.486C1680.75 179.592 1919.25 149.272 2160 139.942C2400.75 129.835 2639.25 139.942 2760.75 144.607L2880 149.272V269H2760.75C2639.25 269 2400.75 269 2160 269C1919.25 269 1680.75 269 1440 269C1199.25 269 960.75 269 720 269C479.25 269 240.75 269 119.25 269H0V0Z" fill="#FECD6D" fill-opacity="0.8"/>
<path fill-rule="evenodd" clip-rule="evenodd" d="M0 107.6L96 129.12C192 150.64 384 193.68 576 182.92C768 172.16 960 107.6 1152 64.56C1344 21.52 1536 0 1728 0C1920 0 2112 21.52 2304 59.18C2496 96.84 2688 150.64 2784 177.54L2880 204.44V269H2784C2688 269 2496 269 2304 269C2112 269 1920 269 1728 269C1536 269 1344 269 1152 269C960 269 768 269 576 269C384 269 192 269 96 269H0V107.6Z" fill="#F9B867" fill-opacity="0.8"/>
</svg>